nColumns=19
nRows=70
DataType=double
version=3
OpenSimVersion=4.1
endheader
time	ground_force_calcn_r_vx	ground_force_calcn_r_vy	ground_force_calcn_r_vz	ground_force_calcn_r_px	ground_force_calcn_r_py	ground_force_calcn_r_pz	ground_force_calcn_r_mx	ground_force_calcn_r_my	ground_force_calcn_r_mz	ground_force_calcn_l_vx	ground_force_calcn_l_vy	ground_force_calcn_l_vz	ground_force_calcn_l_px	ground_force_calcn_l_py	ground_force_calcn_l_pz	ground_force_calcn_l_mx	ground_force_calcn_l_my	ground_force_calcn_l_mz
9.76	-1.39006	238.9	-60.1728	-0.199871	0	-0.431341	0.00241628	-0.415272	0.104596	-5.49187	252.457	62.0318	-0.188499	0	-0.974689	-0.0246265	1.13206	0.278161
9.77	-1.28839	238.875	-59.2794	-0.199957	0	-0.43163	0.00227853	-0.422453	0.104836	-5.38297	254.166	61.2215	-0.189176	0	-0.974246	-0.0255136	1.20467	0.29017
9.78	-1.16639	239.108	-58.401	-0.200218	0	-0.431953	0.00212749	-0.436132	0.106523	-5.28578	256.227	60.4382	-0.189954	0	-0.973767	-0.0263671	1.27814	0.301484
9.79	-1.03108	239.587	-57.5396	-0.200643	0	-0.432299	0.00195859	-0.455106	0.109299	-5.18621	258.632	59.6811	-0.190834	0	-0.973256	-0.0271006	1.35148	0.311864
9.8	-0.890484	240.301	-56.7043	-0.201213	0	-0.432659	0.00177169	-0.478098	0.112817	-5.07493	261.364	58.9527	-0.191806	0	-0.972719	-0.0276391	1.42344	0.321068
9.81	-0.748487	241.239	-55.9081	-0.201911	0	-0.433019	0.00156306	-0.503778	0.116753	-4.9493	264.394	58.2575	-0.192855	0	-0.972164	-0.0279442	1.4928	0.328928
9.82	-0.605873	242.379	-55.1665	-0.202717	0	-0.433367	0.00132714	-0.530923	0.12084	-4.81196	267.68	57.6016	-0.193959	0	-0.971601	-0.0280161	1.55848	0.335368
9.83	-0.463604	243.699	-54.4966	-0.20361	0	-0.43369	0.00106262	-0.558578	0.124911	-4.6681	271.167	56.9921	-0.195094	0	-0.971042	-0.0278827	1.61969	0.340416
9.84	-0.323502	245.18	-53.9155	-0.204577	0	-0.433977	0.000773378	-0.586137	0.128893	-4.5214	274.794	56.4373	-0.196239	0	-0.970498	-0.0275761	1.67597	0.344212
9.85	-0.186588	246.808	-53.438	-0.205602	0	-0.434223	0.000463716	-0.613377	0.132806	-4.37386	278.495	55.9467	-0.197377	0	-0.969978	-0.0271288	1.72736	0.347009
9.86	-0.0510289	248.578	-53.0757	-0.206675	0	-0.434422	0.000131484	-0.640501	0.136758	-4.22689	282.206	55.5299	-0.198495	0	-0.969492	-0.0265767	1.77438	0.349145
9.87	0.0865466	250.487	-52.8363	-0.207788	0	-0.434574	-0.00023082	-0.668048	0.140915	-4.08081	285.864	55.1941	-0.199585	0	-0.969046	-0.0259488	1.81774	0.350965
9.88	0.228849	252.534	-52.723	-0.20893	0	-0.434683	-0.000631443	-0.696794	0.145474	-3.93379	289.408	54.9418	-0.20064	0	-0.968644	-0.0252587	1.85828	0.352779
9.89	0.378972	254.713	-52.7321	-0.210097	0	-0.434751	-0.00108265	-0.727666	0.150646	-3.78125	292.779	54.7702	-0.20166	0	-0.968292	-0.0244985	1.8969	0.354853
9.9	0.541952	257.014	-52.852	-0.21128	0	-0.434787	-0.00160613	-0.761688	0.156632	-3.61572	295.924	54.6713	-0.202638	0	-0.967987	-0.0236351	1.93438	0.357373
9.91	0.724517	259.424	-53.0639	-0.212471	0	-0.434801	-0.00223391	-0.799887	0.163613	-3.42781	298.798	54.6334	-0.203577	0	-0.96773	-0.0226138	1.97122	0.360426
9.92	0.933546	261.923	-53.3431	-0.213659	0	-0.434801	-0.00300498	-0.843102	0.171706	-3.20826	301.36	54.642	-0.204475	0	-0.967518	-0.0213734	2.00766	0.364025
9.93	1.1731	264.487	-53.6625	-0.214833	0	-0.434798	-0.00395549	-0.891803	0.18094	-2.95067	303.581	54.6818	-0.205329	0	-0.967346	-0.0198641	2.04373	0.368122
9.94	1.4429	267.089	-53.9963	-0.215977	0	-0.434801	-0.00511112	-0.946096	0.191268	-2.65236	305.45	54.7387	-0.206137	0	-0.967212	-0.0180555	2.0793	0.372624
9.95	1.73909	269.702	-54.3218	-0.217077	0	-0.43482	-0.00648527	-1.00575	0.202573	-2.31349	306.979	54.8009	-0.206894	0	-0.967112	-0.0159339	2.11429	0.377437
9.96	2.05431	272.299	-54.621	-0.218122	0	-0.434855	-0.00807432	-1.07025	0.214683	-1.93706	308.206	54.8609	-0.2076	0	-0.967039	-0.0135043	2.14867	0.382465
9.97	2.37802	274.856	-54.8824	-0.219097	0	-0.434909	-0.00985223	-1.13874	0.22738	-1.52846	309.191	54.9154	-0.208251	0	-0.966989	-0.0107886	2.18241	0.387618
9.98	2.6984	277.35	-55.1018	-0.219994	0	-0.434977	-0.0117734	-1.21011	0.240415	-1.0945	310.009	54.9652	-0.208845	0	-0.966954	-0.00782173	2.21544	0.392802
9.99	3.00355	279.753	-55.281	-0.220804	0	-0.435058	-0.0137761	-1.28312	0.253553	-0.643063	310.742	55.015	-0.209379	0	-0.966933	-0.00465117	2.24755	0.397915
10	3.28021	282.038	-55.4263	-0.221523	0	-0.435146	-0.0157755	-1.35641	0.266562	-0.184691	311.47	55.0731	-0.209849	0	-0.96692	-0.00135097	2.27833	0.402846
10.01	3.51261	284.178	-55.5465	-0.222147	0	-0.435237	-0.0176568	-1.42848	0.279215	0.265122	312.271	55.1508	-0.210252	0	-0.966916	0.00195888	2.30723	0.407486
10.02	3.68254	286.157	-55.6519	-0.222672	0	-0.435331	-0.0192749	-1.49778	0.291288	0.686021	313.203	55.2603	-0.210581	0	-0.966918	0.00511165	2.33372	0.411753
10.03	3.7715	287.966	-55.753	-0.223095	0	-0.435424	-0.0204695	-1.56291	0.302595	1.05337	314.303	55.4108	-0.210828	0	-0.96693	0.00790027	2.35727	0.41558
10.04	3.76365	289.599	-55.8586	-0.223414	0	-0.435513	-0.0210902	-1.62281	0.313012	1.33914	315.579	55.6065	-0.210985	0	-0.966948	0.0100884	2.37741	0.41891
10.05	3.64903	291.048	-55.9741	-0.223628	0	-0.435595	-0.0210256	-1.67701	0.322521	1.51514	317.002	55.8439	-0.211043	0	-0.966978	0.0114421	2.39395	0.421725
10.06	3.42522	292.303	-56.1004	-0.223742	0	-0.43567	-0.0202211	-1.72564	0.331194	1.55782	318.517	56.1121	-0.210997	0	-0.967017	0.0117731	2.40716	0.424062
10.07	3.09815	293.358	-56.234	-0.223761	0	-0.435737	-0.018686	-1.76934	0.339166	1.45211	320.051	56.394	-0.210846	0	-0.967065	0.0109694	2.41769	0.426005
10.08	2.68207	294.209	-56.3677	-0.223693	0	-0.435795	-0.0164919	-1.80907	0.346602	1.19376	321.529	56.6688	-0.210598	0	-0.96712	0.00900883	2.42645	0.427656
10.09	2.19838	294.858	-56.4925	-0.223551	0	-0.435846	-0.0137631	-1.84598	0.353676	0.790693	322.882	56.9157	-0.210264	0	-0.96718	0.0059615	2.43439	0.42912
10.1	1.67421	295.316	-56.5983	-0.22335	0	-0.435891	-0.010665	-1.88122	0.360541	0.262884	324.059	57.117	-0.209857	0	-0.967244	0.00198143	2.44253	0.430507
10.11	1.14038	295.591	-56.675	-0.223104	0	-0.43593	-0.00739071	-1.9157	0.367306	-0.35843	325.03	57.2599	-0.209399	0	-0.967307	-0.00270361	2.45168	0.431908
10.12	0.62954	295.695	-56.7145	-0.222833	0	-0.435965	-0.00415146	-1.94994	0.374001	-1.0328	325.78	57.3377	-0.208912	0	-0.967369	-0.00780647	2.46242	0.433388
10.13	0.174485	295.642	-56.7123	-0.222556	0	-0.435999	-0.00117088	-1.9839	0.380568	-1.71452	326.316	57.3498	-0.208423	0	-0.967425	-0.0130045	2.47509	0.434995
10.14	-0.194535	295.449	-56.6685	-0.222296	0	-0.436034	0.00132816	-2.01714	0.386896	-2.35686	326.659	57.3015	-0.207956	0	-0.967475	-0.0179631	2.48967	0.436731
10.15	-0.453535	295.136	-56.5868	-0.222068	0	-0.436068	0.00314853	-2.04889	0.392837	-2.91752	326.846	57.2031	-0.207536	0	-0.967518	-0.0223668	2.50572	0.438541
10.16	-0.587522	294.721	-56.4741	-0.221884	0	-0.436101	0.00414276	-2.07815	0.398212	-3.36366	326.926	57.0699	-0.207184	0	-0.967554	-0.025952	2.52236	0.440316
10.17	-0.592011	294.223	-56.3386	-0.221746	0	-0.436133	0.00423336	-2.10393	0.402867	-3.67445	326.955	56.9197	-0.206909	0	-0.967583	-0.0285269	2.53834	0.441901
10.18	-0.473086	293.654	-56.1895	-0.221646	0	-0.436158	0.0034242	-2.12547	0.4067	-3.84136	326.984	56.7712	-0.206718	0	-0.967607	-0.029984	2.55229	0.443131
10.19	-0.246568	293.022	-56.0352	-0.22157	0	-0.436175	0.00180259	-2.1422	0.409657	-3.8672	327.054	56.6404	-0.206607	0	-0.967629	-0.0303052	2.56295	0.44386
10.2	0.0645657	292.336	-55.8831	-0.221498	0	-0.436183	-0.000475682	-2.15376	0.411714	-3.76444	327.193	56.5398	-0.206568	0	-0.96765	-0.029561	2.56935	0.44399
10.21	0.432428	291.608	-55.7398	-0.221405	0	-0.436175	-0.003203	-2.15994	0.412865	-3.55368	327.411	56.4773	-0.206584	0	-0.967672	-0.0279029	2.57077	0.44345
10.22	0.826674	290.85	-55.6101	-0.221264	0	-0.436149	-0.00614132	-2.16071	0.413125	-3.26155	327.7	56.4549	-0.206636	0	-0.967699	-0.0255475	2.56685	0.442207
10.23	1.2173	290.077	-55.4969	-0.221054	0	-0.436104	-0.00904871	-2.15627	0.412533	-2.91784	328.04	56.4689	-0.206699	0	-0.967731	-0.0227499	2.55767	0.440278
10.24	1.57758	289.302	-55.4011	-0.220757	0	-0.436038	-0.0117082	-2.14708	0.411165	-2.55265	328.404	56.5113	-0.206751	0	-0.967768	-0.0197723	2.54374	0.437724
10.25	1.88676	288.533	-55.3218	-0.22036	0	-0.435955	-0.0139534	-2.13382	0.409128	-2.19396	328.759	56.5713	-0.206771	0	-0.96781	-0.0168561	2.52585	0.434635
10.26	2.13124	287.775	-55.2564	-0.21986	0	-0.435857	-0.0156805	-2.11729	0.406545	-1.86604	329.08	56.6371	-0.206738	0	-0.967856	-0.0142047	2.50503	0.431134
10.27	2.3037	287.033	-55.2016	-0.219261	0	-0.435749	-0.0168408	-2.0983	0.403541	-1.58901	329.35	56.6981	-0.206639	0	-0.967902	-0.0119773	2.48251	0.427368
10.28	2.40136	286.309	-55.1539	-0.218569	0	-0.435634	-0.0174256	-2.07762	0.400227	-1.37898	329.565	56.7465	-0.206459	0	-0.967948	-0.0102913	2.45953	0.423496
10.29	2.4243	285.612	-55.11	-0.217795	0	-0.435514	-0.0174513	-2.05597	0.396708	-1.24815	329.733	56.778	-0.206193	0	-0.967995	-0.00922605	2.43731	0.41969
10.3	2.374	284.945	-55.0677	-0.21695	0	-0.435396	-0.0169461	-2.03399	0.393084	-1.20488	329.871	56.7924	-0.205838	0	-0.968041	-0.00882811	2.41696	0.416116
10.31	2.25249	284.314	-55.0263	-0.216048	0	-0.43528	-0.0159418	-2.0122	0.389442	-1.25346	329.998	56.7922	-0.205393	0	-0.968087	-0.0091134	2.39928	0.412913
10.32	2.06294	283.723	-54.9862	-0.215106	0	-0.435168	-0.0144766	-1.99101	0.385863	-1.39403	330.127	56.7822	-0.204867	0	-0.968135	-0.01007	2.38474	0.410178
10.33	1.81026	283.173	-54.9496	-0.214137	0	-0.435062	-0.0125984	-1.97073	0.38242	-1.6229	330.268	56.7677	-0.204269	0	-0.968185	-0.0116628	2.37344	0.407956
10.34	1.50134	282.667	-54.9189	-0.213162	0	-0.434961	-0.0103654	-1.95156	0.379165	-1.93353	330.418	56.7538	-0.203611	0	-0.968238	-0.0138396	2.36503	0.406226
10.35	1.14442	282.206	-54.8966	-0.212196	0	-0.434866	-0.00784079	-1.93349	0.376116	-2.31777	330.573	56.7441	-0.202905	0	-0.968296	-0.0165394	2.35894	0.404921
10.36	0.748169	281.792	-54.8843	-0.211258	0	-0.434774	-0.0050882	-1.91643	0.373261	-2.76646	330.718	56.7408	-0.202161	0	-0.968357	-0.0196951	2.35446	0.403951
10.37	0.320766	281.427	-54.8829	-0.210359	0	-0.434689	-0.00216579	-1.90018	0.370565	-3.27037	330.837	56.7442	-0.201392	0	-0.968421	-0.0232385	2.35085	0.403211
10.38	-0.130594	281.111	-54.8919	-0.209512	0	-0.434608	0.000875469	-1.8845	0.367981	-3.82061	330.911	56.753	-0.200608	0	-0.968487	-0.0271022	2.34738	0.402588
10.39	-0.599395	280.841	-54.9087	-0.208727	0	-0.434535	0.00398965	-1.86931	0.365479	-4.40864	330.925	56.7646	-0.199818	0	-0.968553	-0.0312199	2.34345	0.401979
10.4	-1.07949	280.605	-54.9281	-0.208009	0	-0.434469	0.00713494	-1.85467	0.363049	-5.02616	330.867	56.7751	-0.199032	0	-0.968619	-0.0355257	2.33862	0.401296
10.41	-1.56565	280.389	-54.9438	-0.207362	0	-0.434413	0.0102777	-1.8406	0.360677	-5.66483	330.732	56.7806	-0.19826	0	-0.968684	-0.0399524	2.33255	0.400457
10.42	-2.05337	280.172	-54.9495	-0.20679	0	-0.434364	0.0133909	-1.82712	0.358349	-6.3164	330.524	56.7779	-0.197516	0	-0.968747	-0.044433	2.32509	0.399407
10.43	-2.53937	279.933	-54.9397	-0.206297	0	-0.434328	0.0164566	-1.81413	0.356041	-6.97296	330.257	56.7659	-0.196812	0	-0.968806	-0.0489049	2.31626	0.398128
10.44	-3.02176	279.647	-54.9104	-0.205887	0	-0.4343	0.0194645	-1.80133	0.353703	-7.62777	329.953	56.7451	-0.196163	0	-0.96886	-0.0533133	2.30616	0.396613
10.45	-3.49965	279.294	-54.8594	-0.205567	0	-0.434284	0.0224081	-1.78831	0.351262	-8.27541	329.641	56.7183	-0.195587	0	-0.968907	-0.0576084	2.29476	0.394839
